<svg width="500" height="500" viewBox="0 0 500 500" fill="none" xmlns="http://www.w3.org/2000/svg">
<g clip-path="url(#clip0_4_11)">
<rect width="500" height="500" rx="250" fill="#181D29"/>
<path d="M226.6 299C224.2 297 223 294.533 223 291.6C223 290.533 223.333 289.333 224 288C224.8 286.667 225.733 285.467 226.8 284.4C228.267 282.8 230.067 280.8 232.2 278.4C234.333 276.133 236.467 273.467 238.6 270.4C240.733 267.467 242.667 264.2 244.4 260.6C246.267 257.133 247.667 253.4 248.6 249.4C244.333 249.4 240.467 248.667 237 247.2C233.533 245.6 230.533 243.467 228 240.8C225.6 238.133 223.667 235 222.2 231.4C220.867 227.8 220.2 223.867 220.2 219.6C220.2 215.867 220.867 212.4 222.2 209.2C223.667 205.867 225.667 203 228.2 200.6C230.733 198.067 233.8 196.133 237.4 194.8C241 193.333 244.933 192.6 249.2 192.6C254.267 192.6 258.667 193.533 262.4 195.4C266.267 197.133 269.4 199.6 271.8 202.8C274.333 205.867 276.2 209.467 277.4 213.6C278.733 217.6 279.4 221.867 279.4 226.4C279.4 232.8 278.4 239.533 276.4 246.6C274.533 253.667 271.733 260.733 268 267.8C264.267 274.867 259.6 281.733 254 288.4C248.533 295.067 242.267 301.2 235.2 306.8L226.6 299Z" fill="white" fill-opacity="0.8"/>
</g>
<rect x="2" y="2" width="496" height="496" rx="248" stroke="white" stroke-opacity="0.4" stroke-width="4"/>
<defs>
<clipPath id="clip0_4_11">
<rect width="500" height="500" rx="250" fill="white"/>
</clipPath>
</defs>
</svg>
