<svg width="139" height="40" viewBox="0 0 139 40" fill="none" xmlns="http://www.w3.org/2000/svg">
<path d="M26.136 6.842H17.116V33H9.68V6.842H0.66V0.946H26.136V6.842ZM58.9562 10.186L51.8722 33H46.3282C46.0349 33 45.7856 32.912 45.5802 32.736C45.3749 32.56 45.2136 32.2667 45.0962 31.856L41.8402 20.482C41.6789 19.9687 41.5322 19.4627 41.4002 18.964C41.2829 18.4653 41.1729 17.9593 41.0702 17.446C40.9676 17.9593 40.8502 18.4727 40.7182 18.986C40.6009 19.4993 40.4616 20.0127 40.3002 20.526L37.0002 31.856C36.7802 32.6187 36.2962 33 35.5482 33H30.2682L23.1842 10.186H28.6402C29.1242 10.186 29.5276 10.3033 29.8502 10.538C30.1876 10.758 30.4149 11.0367 30.5322 11.374L32.8202 21.604C33.0109 22.3813 33.1796 23.1367 33.3262 23.87C33.4729 24.5887 33.6049 25.3147 33.7222 26.048C33.9129 25.3147 34.1109 24.5887 34.3162 23.87C34.5362 23.1367 34.7709 22.3813 35.0202 21.604L37.8802 11.352C37.9976 11.0147 38.2176 10.736 38.5402 10.516C38.8629 10.2813 39.2442 10.164 39.6842 10.164H42.7202C43.2042 10.164 43.6076 10.2813 43.9302 10.516C44.2676 10.736 44.4949 11.0147 44.6122 11.352L47.3402 21.604C47.5602 22.3813 47.7729 23.1367 47.9782 23.87C48.1982 24.6033 48.3962 25.344 48.5722 26.092C48.6896 25.3587 48.8289 24.6253 48.9902 23.892C49.1516 23.1587 49.3349 22.396 49.5402 21.604L51.9602 11.374C52.0776 11.0367 52.2976 10.758 52.6202 10.538C52.9429 10.3033 53.3242 10.186 53.7642 10.186H58.9562ZM75.1523 18.854C75.1523 18.3113 75.079 17.7833 74.9323 17.27C74.8003 16.7567 74.573 16.302 74.2503 15.906C73.9423 15.4953 73.5317 15.1653 73.0183 14.916C72.505 14.6667 71.8817 14.542 71.1483 14.542C69.8577 14.542 68.8457 14.916 68.1123 15.664C67.379 16.3973 66.895 17.4607 66.6603 18.854H75.1523ZM66.5723 22.814C66.7923 24.7207 67.3717 26.1067 68.3103 26.972C69.249 27.8227 70.459 28.248 71.9403 28.248C72.7323 28.248 73.4143 28.1527 73.9863 27.962C74.5583 27.7713 75.0643 27.5587 75.5043 27.324C75.959 27.0893 76.3697 26.8767 76.7363 26.686C77.1177 26.4953 77.5137 26.4 77.9243 26.4C78.467 26.4 78.8777 26.598 79.1563 26.994L81.1363 29.436C80.4323 30.2427 79.6697 30.9027 78.8483 31.416C78.0417 31.9147 77.2057 32.3107 76.3403 32.604C75.4897 32.8827 74.6317 33.0733 73.7663 33.176C72.9157 33.2933 72.1017 33.352 71.3243 33.352C69.7257 33.352 68.2223 33.0953 66.8143 32.582C65.421 32.054 64.1963 31.2767 63.1403 30.25C62.099 29.2233 61.2703 27.9473 60.6543 26.422C60.053 24.8967 59.7523 23.122 59.7523 21.098C59.7523 19.5727 60.009 18.128 60.5223 16.764C61.0503 15.4 61.7983 14.2047 62.7663 13.178C63.749 12.1513 64.9297 11.3373 66.3083 10.736C67.7017 10.1347 69.271 9.834 71.0163 9.834C72.527 9.834 73.9057 10.0687 75.1523 10.538C76.4137 11.0073 77.4917 11.6893 78.3863 12.584C79.2957 13.4787 79.9997 14.5787 80.4983 15.884C81.0117 17.1747 81.2683 18.6413 81.2683 20.284C81.2683 20.7973 81.2463 21.2153 81.2023 21.538C81.1583 21.8607 81.0777 22.1173 80.9603 22.308C80.843 22.4987 80.6817 22.6307 80.4763 22.704C80.2857 22.7773 80.0363 22.814 79.7283 22.814H66.5723ZM90.9731 12.65C91.4131 12.2393 91.8678 11.858 92.3371 11.506C92.8064 11.154 93.3051 10.8607 93.8331 10.626C94.3758 10.3767 94.9551 10.186 95.5711 10.054C96.2018 9.90733 96.8838 9.834 97.6171 9.834C98.8638 9.834 99.9638 10.054 100.917 10.494C101.885 10.9193 102.699 11.5207 103.359 12.298C104.019 13.0607 104.518 13.9773 104.855 15.048C105.192 16.104 105.361 17.2553 105.361 18.502V33H98.5411V18.502C98.5411 17.3873 98.2844 16.522 97.7711 15.906C97.2578 15.2753 96.5024 14.96 95.5051 14.96C94.7571 14.96 94.0531 15.1213 93.3931 15.444C92.7478 15.752 92.1171 16.1773 91.5011 16.72V33H84.6811V10.186H88.9051C89.7558 10.186 90.3131 10.5673 90.5771 11.33L90.9731 12.65ZM130.71 10.186L121.866 33H115.662L106.818 10.186H112.494C112.978 10.186 113.382 10.3033 113.704 10.538C114.042 10.758 114.269 11.0367 114.386 11.374L117.554 21.604C117.833 22.44 118.075 23.254 118.28 24.046C118.5 24.838 118.691 25.63 118.852 26.422C119.175 24.838 119.622 23.232 120.194 21.604L123.494 11.374C123.612 11.0367 123.832 10.758 124.154 10.538C124.477 10.3033 124.858 10.186 125.298 10.186H130.71ZM131.475 38.434C131.152 38.17 130.991 37.8473 130.991 37.466C130.991 37.3193 131.042 37.158 131.145 36.982C131.248 36.8207 131.372 36.674 131.519 36.542C131.695 36.366 131.9 36.146 132.135 35.882C132.37 35.6327 132.604 35.354 132.839 35.046C133.074 34.738 133.286 34.4007 133.477 34.034C133.682 33.6673 133.836 33.2787 133.939 32.868C133.44 32.824 132.986 32.6993 132.575 32.494C132.164 32.2887 131.812 32.0247 131.519 31.702C131.226 31.3647 130.998 30.9833 130.837 30.558C130.676 30.118 130.595 29.6413 130.595 29.128C130.595 28.6587 130.683 28.226 130.859 27.83C131.035 27.4193 131.284 27.0673 131.607 26.774C131.944 26.466 132.333 26.224 132.773 26.048C133.228 25.872 133.734 25.784 134.291 25.784C134.951 25.784 135.523 25.9013 136.007 26.136C136.491 26.356 136.894 26.664 137.217 27.06C137.54 27.4413 137.774 27.8887 137.921 28.402C138.082 28.9007 138.163 29.4287 138.163 29.986C138.163 30.7193 138.046 31.504 137.811 32.34C137.576 33.1613 137.224 33.99 136.755 34.826C136.3 35.662 135.728 36.4833 135.039 37.29C134.35 38.0967 133.558 38.83 132.663 39.49L131.475 38.434Z" fill="white"/>
</svg>
